<svg width="50" height="50" viewBox="0 0 50 50" fill="none" xmlns="http://www.w3.org/2000/svg">
<rect width="50" height="50" rx="25" fill="white"/>
<path d="M9.3475 15.889C9.41889 16.2851 9.53635 16.665 9.6941 17.0219C9.74592 17.1393 9.86222 17.2165 9.99119 17.2165H18.5516C18.6806 17.2165 18.7957 17.1393 18.8487 17.0219C19.0076 16.6638 19.1251 16.2851 19.1964 15.8879C19.2321 15.6887 19.0824 15.5033 18.8786 15.5033H9.66416C9.4615 15.5033 9.31065 15.6875 9.34634 15.8879L9.3475 15.889ZM14.2714 20.0038C15.5185 20.0038 16.6596 19.5468 17.5348 18.7915C17.7616 18.5958 17.6223 18.2239 17.3229 18.2239H11.2187C10.9193 18.2239 10.7811 18.5958 11.0068 18.7915C11.8831 19.5468 13.0231 20.0038 14.2714 20.0038ZM18.5504 12.7862H9.99004C9.86107 12.7862 9.74477 12.8633 9.69295 12.9808C9.53519 13.3388 9.41659 13.7176 9.34634 14.1137C9.31065 14.3129 9.46034 14.4982 9.66416 14.4982H18.8786C19.0813 14.4982 19.2321 14.314 19.1964 14.1137C19.1251 13.7176 19.0076 13.3377 18.8487 12.9796C18.7969 12.8622 18.6806 12.785 18.5516 12.785L18.5504 12.7862ZM14.2714 10C13.0243 10 11.8831 10.4559 11.0068 11.2112C10.78 11.4069 10.9193 11.7788 11.2176 11.7788H17.3218C17.6212 11.7788 17.7593 11.4069 17.5336 11.2112C16.6585 10.4559 15.5185 10 14.2702 10H14.2714Z" fill="url(#paint0_linear_3279_8)"/>
<path d="M34.0682 13.2938H19.8159L19.8447 13.3928C19.9967 13.9167 20.0727 14.4578 20.0727 15.0012C20.0727 15.5446 19.9898 16.1307 19.8262 16.6729L19.7963 16.7731H34.0682C35.7817 16.7731 37.1762 18.1674 37.1762 19.8805V33.4131C37.1762 35.1263 35.7817 36.5206 34.0682 36.5206H20.7832C19.0697 36.5206 17.6752 35.1263 17.6752 33.4131V26.5421C17.6752 24.7771 19.1112 23.3414 20.8764 23.3414H30.6989V29.8832H24.2389V26.382H21.6836C21.1735 26.382 20.759 26.7965 20.759 27.3065V31.6125C20.759 32.5773 21.5443 33.3613 22.5081 33.3613H32.4285C33.3934 33.3613 34.1776 32.5761 34.1776 31.6125V21.6098C34.1776 20.645 33.3923 19.8609 32.4285 19.8609H20.8764C17.1927 19.8609 14.1953 22.8578 14.1953 26.5409V33.412C14.1953 37.0444 17.1513 39.9999 20.7843 39.9999H34.0694C37.7024 39.9999 40.6584 37.0444 40.6584 33.412V19.8794C40.6584 16.2469 37.7024 13.2915 34.0694 13.2915L34.0682 13.2938Z" fill="#00294A"/>
<defs>
<linearGradient id="paint0_linear_3279_8" x1="16.0229" y1="9.99896" x2="12.607" y2="19.3879" gradientUnits="userSpaceOnUse">
<stop offset="0.63" stop-color="#FE264A"/>
</linearGradient>
</defs>
</svg>
